Coordinates
version=1
nRows=10
nColumns=40
inDegrees=yes

Units are S.I. units (second, meters, Newtons, ...)
Angles are in degrees.

endheader
time	pelvis_tilt	pelvis_list	pelvis_rotation	pelvis_tx	pelvis_ty	pelvis_tz	hip_flexion_r	hip_adduction_r	hip_rotation_r	knee_angle_r	knee_angle_r_beta	ankle_angle_r	subtalar_angle_r	mtp_angle_r	hip_flexion_l	hip_adduction_l	hip_rotation_l	knee_angle_l	knee_angle_l_beta	ankle_angle_l	subtalar_angle_l	mtp_angle_l	lumbar_extension	lumbar_bending	lumbar_rotation	arm_flex_r	arm_add_r	arm_rot_r	elbow_flex_r	pro_sup_r	wrist_flex_r	wrist_dev_r	arm_flex_l	arm_add_l	arm_rot_l	elbow_flex_l	pro_sup_l	wrist_flex_l	wrist_dev_l
      3.63250000	     -7.19718096	     -4.56133085	      1.99290622	      0.75983111	      0.91920896	      0.46752701	      3.77165683	     -0.75023813	    -14.24614290	     25.48914168	     25.48914168	     16.11292281	     -3.66162814	     -5.63904545	     28.94094018	     -4.77629029	     -0.86640531	     25.54898839	     25.54898839	      6.95297936	    -13.48163973	      3.43574967	     -8.59465982	      5.22191378	      2.87427069	     30.40439731	    -16.07416211	     -3.78472608	    104.23238954	     44.51411246	      0.00000000	      0.00000000	     -9.03666064	     -7.46483446	     -2.60520439	     29.80073643	     44.18737956	      0.00000000	      0.00000000
      3.64514286	     -7.10673076	     -4.44303688	      1.88658891	      0.76082640	      0.91989852	      0.46513866	      4.67502416	     -1.37119791	    -13.84069585	     28.15711299	     28.15711299	     15.27049132	     -4.89178674	     -6.51931786	     28.33596503	     -4.56568542	     -1.02929488	     25.66299682	     25.66299682	      7.50367715	    -13.47463885	      3.46275343	     -8.68754934	      5.08821504	      2.97522940	     29.13996204	    -16.12181807	     -3.79300187	    102.80091847	     44.55896473	      0.00000000	      0.00000000	     -8.47541792	     -7.59873158	     -2.51102022	     30.36672187	     44.19535077	      0.00000000	      0.00000000
      3.65778571	     -7.17302140	     -4.36986034	      1.73532633	      0.76160879	      0.92024293	      0.46291163	      5.95837827	     -1.92772918	    -13.26536668	     31.11041275	     31.11041275	     14.07734476	     -6.53285577	     -7.73610263	     27.85577680	     -4.41311499	     -1.19360600	     25.66780132	     25.66780132	      8.07874189	    -13.42225825	      3.51736952	     -8.58152831	      4.96708453	      3.09225893	     27.92676750	    -16.20894323	     -3.91114262	    100.87426186	     44.62472131	      0.00000000	      0.00000000	     -7.99391223	     -7.76714053	     -2.41628400	     31.18869536	     44.20760166	      0.00000000	      0.00000000
      3.67042857	     -7.10564866	     -4.24213239	      1.58805865	      0.76235216	      0.92067261	      0.46073498	      7.21157789	     -2.53946604	    -12.69516712	     34.21426278	     34.21426278	     12.73295485	     -8.15604477	     -8.79235881	     27.26467219	     -4.22095208	     -1.41822956	     25.74301758	     25.74301758	      8.60734408	    -13.35586327	      3.46727357	     -8.63425163	      4.83884101	      3.13432104	     26.66330800	    -16.13966359	     -3.90242652	     99.00708756	     44.68303415	      0.00000000	      0.00000000	     -7.43213093	     -7.97297571	     -2.37540729	     32.05068113	     44.22655921	      0.00000000	      0.00000000
      3.68307143	     -7.04442070	     -4.22151893	      1.45544234	      0.76293531	      0.92103456	      0.45875161	      8.44504734	     -2.89007639	    -11.93493292	     36.99672007	     36.99672007	      9.80134955	    -11.17123161	    -12.98941016	     26.73872394	     -4.16052244	     -1.63694225	     25.88951001	     25.88951001	      9.33626507	    -13.11826742	      3.85041235	     -8.63593086	      4.79092005	      2.32358237	     26.39041111	    -15.13272486	     -3.74522980	     94.90338879	     44.83182923	      0.00000000	      0.00000000	     -7.95748473	     -8.45281268	     -1.96815708	     34.79040132	     44.27440439	      0.00000000	      0.00000000
      3.69571429	     -6.98748610	     -4.04892617	      1.29202250	      0.76335800	      0.92121856	      0.45667200	     10.00249381	     -3.61172180	    -11.49915564	     40.48188635	     40.48188635	      8.35255421	    -12.44769018	    -13.16246480	     26.17463281	     -3.92916329	     -1.90928040	     25.95018573	     25.95018573	      9.82511487	    -13.10540449	      3.64198053	     -8.76522235	      4.63335015	      2.45976993	     24.84123640	    -15.31025853	     -3.46012110	     93.54254604	     44.86270253	      0.00000000	      0.00000000	     -7.07324393	     -8.67944189	     -2.04517929	     35.41205158	     44.31264983	      0.00000000	      0.00000000
      3.70835714	     -6.99983443	     -4.02414114	      1.14222742	      0.76361885	      0.92135664	      0.45479538	     11.68577397	     -3.98951131	    -10.80303302	     43.85342777	     43.85342777	      6.63561124	    -14.29718209	    -12.82306488	     25.71731728	     -3.84298303	     -2.04465698	     26.01248949	     26.01248949	     10.21943875	    -13.05901747	      3.49812768	     -8.72998333	      4.65859492	      2.67162727	     23.43343956	    -15.46645864	     -3.45478824	     91.09876903	     44.93980290	      0.00000000	      0.00000000	     -6.23834244	     -8.89193110	     -2.09906009	     36.42521133	     44.36206336	      0.00000000	      0.00000000
      3.72100000	     -6.93477617	     -3.95275779	      0.98801054	      0.76372423	      0.92155928	      0.45298930	     13.36029848	     -4.43355394	    -10.21231972	     47.22393831	     47.22393831	      5.08313936	    -15.71985335	    -11.84458037	     25.20034887	     -3.72154374	     -2.21598116	     26.11070905	     26.11070905	     10.66662366	    -12.99411145	      3.35630988	     -8.84237663	      4.61670848	      2.65404397	     22.18551156	    -15.27385250	     -3.47490700	     88.36335570	     45.02758473	      0.00000000	      0.00000000	     -5.43727770	     -9.17562706	     -2.11185220	     37.54720351	     44.41247262	      0.00000000	      0.00000000
      3.73364286	     -6.84520037	     -3.84964488	      0.84013677	      0.76378134	      0.92172022	      0.45123043	     15.12260470	     -4.90152726	     -9.66990344	     50.69745761	     50.69745761	      4.51178410	    -16.36829526	     -8.28986805	     24.65367418	     -3.57506355	     -2.45772484	     26.20217738	     26.20217738	     11.18045775	    -12.89680348	      3.37212466	     -8.93386121	      4.58505520	      1.99745862	     21.64875926	    -14.44949064	     -3.25996869	     84.43622187	     45.15364427	      0.00000000	      0.00000000	     -5.19672255	     -9.67585839	     -1.96405928	     39.30831402	     44.51748108	      0.00000000	      0.00000000
      3.74628571	     -6.77663375	     -3.78533111	      0.69307165	      0.76368718	      0.92190789	      0.44957663	     16.89303762	     -5.27269017	     -9.14506268	     53.90077021	     53.90077021	      4.04901027	    -16.91364305	     -4.59779832	     24.13191186	     -3.45615123	     -2.61790804	     26.26983695	     26.26983695	     11.65511846	    -12.84694885	      3.36656650	     -9.06882575	      4.60866540	      1.87319324	     20.50337457	    -14.27700051	     -3.02336218	     81.42407440	     45.24382299	      0.00000000	      0.00000000	     -4.30451269	    -10.00557295	     -1.93745410	     40.49974759	     44.66353973	      0.00000000	      0.00000000
